# xmcd
#
# Track frame offsets:
#	150
#	5473
#	31833
#	58694
#	88289
#	126769
#	170188
#	191938
#	244155
#	287226
#	332431
#	334757
#
# Disc length: 4613 seconds
#
# Revision: 0
# Processed by: cddbd v1.5.2PL0 Copyright (c) Steve Scherf et al.
# Submitted via: EasyCDDAExtractor 16.0.8.1
#
DISCID=b112030c
DTITLE=Sternenschweif - Folge 27 - Die Zauberquelle 
DYEAR=2014
DGENRE=Hörspiel
TTITLE0=Titelsong
TTITLE1=Unangenehme waldbesucher
TTITLE2=Was ist mit Sternenschweif?
TTITLE3=Bald ist halloween!
TTITLE4=Ein Ausritt mit folgen 
TTITLE5=Laura wird wütend 
TTITLE6=Der Schlüssel liegt in der Vergangenheit
TTITLE7=Wo ist die Zauberquelle?
TTITLE8=Alles, was bet, braucht Wassser und Luft
TTITLE9=Das geheimnis wird gelüftet
TTITLE10=Wie es in der nächsten Folge weitergeht...
TTITLE11=Vorschau 
EXTD=
EXTT0=
EXTT1=
EXTT2=
EXTT3=
EXTT4=
EXTT5=
EXTT6=
EXTT7=
EXTT8=
EXTT9=
EXTT10=
EXTT11=
PLAYORDER=
